<?xml version="1.0" encoding="UTF-8"?>
<svg width="90px" height="90px" viewBox="0 0 90 90" version="1.1" xmlns="http://www.w3.org/2000/svg" xmlns:xlink="http://www.w3.org/1999/xlink">
    <!-- Generator: Sketch 43.1 (39012) - http://www.bohemiancoding.com/sketch -->
    <title>avatar</title>
    <desc>Created with Sketch.</desc>
    <defs>
        <ellipse id="path-1" cx="45" cy="45" rx="45" ry="45"></ellipse>
    </defs>
    <g id="1.0-customer" stroke="none" stroke-width="1" fill="none" fill-rule="evenodd">
        <g id="1.1.0-customer-profile-active" transform="translate(-275.000000, -172.000000)">
            <g id="Profile-info" transform="translate(230.000000, 157.000000)">
                <g id="avatar" transform="translate(45.000000, 15.000000)">
                    <mask id="mask-2" fill="white">
                        <use xlink:href="#path-1"></use>
                    </mask>
                    <use id="Mask" fill="#E5E5E5" xlink:href="#path-1"></use>
                    <g id="business-color_business-contact-85" mask="url(#mask-2)">
                        <g transform="translate(2.700000, 7.200000)" id="Group">
                            <g>
                                <rect id="Rectangle-path" fill-opacity="0.5" fill="#F4F4F4" fill-rule="nonzero" x="30.6382979" y="44.0425532" width="22.9787234" height="28.7234043"></rect>
                                <path d="M63.1914894,21.0638298 L63.1914894,36.3829787 C63.1914894,47.9968085 53.7414894,57.4468085 42.1276596,57.4468085 C30.5138298,57.4468085 21.0638298,47.9968085 21.0638298,36.3829787 L21.0638298,21.0638298 L63.1914894,21.0638298 Z" id="Shape" fill="#F4F4F4" fill-rule="nonzero"></path>
                                <path d="M50.7446809,90 L33.5106383,90 L1.90531915,90 C0.863617021,90 0,89.1402128 0,88.0793617 L0,82.3576596 C0,79.1808511 2.36106383,75.563617 5.27361702,74.2921277 L30.672766,63.1914894 C33.8706383,65.5851064 37.8268085,67.0212766 42.1276596,67.0212766 C46.411453,67.0212766 50.3532942,65.5964758 53.5785276,63.2199242 L53.5825532,63.1914894 L53.6042221,63.2009597 C53.6084897,63.1978046 53.6127561,63.1946478 53.6170213,63.1914894 L53.6193166,63.2075567 L78.9817021,74.2921277 C81.8942553,75.563617 84.2553191,79.1808511 84.2553191,82.3576596 L84.2553191,88.0793617 C84.2553191,89.1402128 83.3917021,90 82.35,90 L50.7446809,90 Z" id="Combined-Shape" fill="#FFFFFF" fill-rule="nonzero"></path>
                                <path d="M21.0638298,21.0619149 C21.0638298,14.7178723 25.9180851,7.84148936 31.8906383,5.70829787 L46.0723404,0.643404255 C47.0661702,0.289148936 48.2534043,0.76212766 48.7225532,1.70042553 L51.7021277,7.65957447 C58.0480851,7.65957447 63.1914894,12.816383 63.1914894,19.1489362 L63.1914894,30.6382979 C63.1914894,25.3512766 58.9040426,21.0638298 53.6170213,21.0638298 L30.6382979,21.0638298 C25.3512766,21.0638298 21.0638298,25.3512766 21.0638298,30.6382979 L21.0638298,21.0619149 Z" id="Shape" fill="#A6A6A6" fill-rule="nonzero"></path>
                            </g>
                        </g>
                    </g>
                </g>
            </g>
        </g>
    </g>
</svg>